Patient4_TMGait_0pt7_02_left_48_GRF.mot
version=1
nRows=26
nColumns=19
inDegrees=no
endheader
time	F1x	F1y	F1z	M1x	M1y	M1z	F2x	F2y	F2z	M2x	M2y	M2z	EC1x	EC1y	EC1z	EC2x	EC2y	EC2z
54.89	-5.679	8.7585	-1.8272	-1.765	-0.76332	13.6156	-41.1885	726.0615	-26.6091	250.6504	41.7409	724.788	-0.0592	0.0182	-0.0073	-0.0462	0.0165	0.9585
54.9019	-4.0747	7.2872	-1.3347	-1.6447	-0.5559	10.8868	-30.0783	729.4773	-37.7572	253.4236	48.6866	722.449	-0.0592	0.0182	-0.0073	-0.0462	0.0165	0.9585
54.9139	-2.6501	6.0355	-0.83263	-1.5589	-0.42473	8.4838	-19.7913	734.7466	-46.8055	256.9411	53.7731	721.2192	-0.0592	0.0182	-0.0073	-0.0462	0.0165	0.9585
54.9258	-1.4971	5.0702	-0.39885	-1.5018	-0.34215	6.5643	-10.7781	741.7872	-53.2287	261.0704	56.6772	721.2274	-0.0592	0.0182	-0.0073	-0.0462	0.0165	0.9585
54.9377	-0.69531	4.4436	-0.070009	-1.479	-0.30005	5.2686	-3.1579	750.3098	-57.0056	265.6406	57.4386	722.388	-0.0592	0.0182	-0.0073	-0.0462	0.0165	0.9585
54.9496	-0.16579	4.0687	0.15823	-1.473	-0.27854	4.4624	3.1479	759.7341	-58.617	270.3852	56.5021	724.3232	-0.0592	0.0182	-0.0073	-0.0462	0.0165	0.9585
54.9616	0.082787	3.885	0.29947	-1.4719	-0.29028	4.0806	8.3022	769.2364	-58.6296	274.9538	54.354	726.4198	-0.0592	0.0182	-0.0073	-0.0462	0.0165	0.9585
54.9735	0.18059	3.7419	0.37926	-1.4435	-0.31999	3.8568	12.4917	777.74	-57.7198	278.9057	51.5747	727.8113	-0.0592	0.0182	-0.0073	-0.0462	0.0165	0.9585
54.9854	0.12484	3.539	0.42482	-1.361	-0.38439	3.6751	15.9393	784.0184	-56.4752	281.7647	48.6496	727.4539	-0.0592	0.0182	-0.0073	-0.0462	0.0165	0.9585
54.9974	0.022174	3.1027	0.4668	-1.1782	-0.4714	3.2516	18.8582	786.9604	-55.3643	283.1174	45.9647	724.399	-0.0592	0.0182	-0.0073	-0.0462	0.0165	0.9585
55.0093	-0.14223	2.317	0.52014	-0.85582	-0.59016	2.4721	21.4564	785.8117	-54.6675	282.7115	43.7355	717.9745	-0.0592	0.0182	-0.0073	-0.0462	0.0165	0.9585
55.0212	-0.26329	1.0213	0.60017	-0.34499	-0.71822	1.0761	23.8772	780.3944	-54.4374	280.5248	41.9843	708.029	-0.0592	0.0182	-0.0073	-0.0462	0.0165	0.9585
55.0331	-0.35611	-0.83667	0.69379	0.37703	-0.84125	-0.98438	26.2364	771.0739	-54.6639	276.7429	40.689	694.8905	-0.0592	0.0182	-0.0073	-0.0462	0.0165	0.9585
55.0451	-0.30033	-3.2717	0.79451	1.3078	-0.91601	-3.7736	28.5588	758.6808	-55.2351	271.7232	39.7541	679.3125	-0.0592	0.0182	-0.0073	-0.0462	0.0165	0.9585
55.057	-0.077432	-6.0666	0.85389	2.3676	-0.88235	-7.0183	30.8721	744.3732	-56.1239	265.9342	39.1551	662.3241	-0.0592	0.0182	-0.0073	-0.0462	0.0165	0.9585
55.0689	0.44493	-8.8089	0.82976	3.3951	-0.64635	-10.2774	33.1471	729.4676	-57.2584	259.8981	38.8299	645.0842	-0.0592	0.0182	-0.0073	-0.0462	0.0165	0.9585
55.0809	1.3201	-10.6807	0.61713	4.0814	-0.068397	-12.5664	35.35	715.2638	-58.6531	254.118	38.7941	628.7125	-0.0592	0.0182	-0.0073	-0.0462	0.0165	0.9585
55.0928	2.667	-10.4843	0.1444	3.962	0.98448	-12.5014	37.4644	702.9356	-60.2296	249.0419	38.9721	614.1972	-0.0592	0.0182	-0.0073	-0.0462	0.0165	0.9585
55.1047	4.4858	-6.4408	-0.71893	2.3607	2.6678	-7.9943	39.4707	693.3348	-61.9675	244.9946	39.3452	602.2385	-0.0592	0.0182	-0.0073	-0.0462	0.0165	0.9585
55.1166	6.7422	3.6904	-2.0425	-1.5737	5.0529	3.5441	41.3866	686.8815	-63.7373	242.1442	39.79	593.1626	-0.0592	0.0182	-0.0073	-0.0462	0.0165	0.9585
55.1286	9.1771	22.5328	-3.9013	-8.824	8.1239	25.1631	43.2292	683.47	-65.4118	240.4623	40.1892	586.8714	-0.0592	0.0182	-0.0073	-0.0462	0.0165	0.9585
55.1405	11.3266	52.6398	-6.2316	-20.3392	11.6241	59.8174	45.0516	682.3838	-66.7825	239.702	40.3471	582.7305	-0.0592	0.0182	-0.0073	-0.0462	0.0165	0.9585
55.1524	12.3777	95.8017	-8.851	-36.767	15.0134	109.6174	46.8842	682.3456	-67.6283	239.4112	40.0715	579.6519	-0.0592	0.0182	-0.0073	-0.0462	0.0165	0.9585
55.1644	11.1283	151.8996	-11.2874	-58.0186	17.2757	174.4809	48.7556	681.5543	-67.6979	238.9568	39.152	576.0985	-0.0592	0.0182	-0.0073	-0.0462	0.0165	0.9585
55.1763	6.0718	217.5758	-12.7422	-82.7696	16.9247	250.6156	50.5836	677.8946	-66.7326	237.5895	37.4084	570.3333	-0.0592	0.0182	-0.0073	-0.0462	0.0165	0.9585
55.1882	-3.2442	286.0194	-12.1718	-108.3742	12.6084	330.2316	52.262	669.0674	-64.5462	234.4963	34.7393	560.454	-0.0592	0.0182	-0.0073	-0.0462	0.0165	0.9585
